<svg width="120" height="120" viewBox="0 0 120 120" fill="none" xmlns="http://www.w3.org/2000/svg">
  <rect width="120" height="120" rx="24" fill="#ffffff"/>
  <path d="M34 84V38H50C58.2843 38 64 42.7157 64 52C64 61.2843 58.2843 66 50 66H34V84Z" fill="#0f3d7a"/>
  <path d="M72 84V38H88C96.2843 38 102 42.7157 102 52C102 61.2843 96.2843 66 88 66H72V84Z" fill="#ca9f41"/>
  <path d="M52 58C52 50.268 58.268 44 66 44C73.732 44 80 50.268 80 58C80 65.732 73.732 72 66 72C58.268 72 52 65.732 52 58Z" fill="#ffffff"/>
  <path d="M68 60C68 58.3431 69.3431 57 71 57C72.6569 57 74 58.3431 74 60C74 61.6569 72.6569 63 71 63C69.3431 63 68 61.6569 68 60Z" fill="#0f3d7a"/>
  <path d="M44 46H56V54H44V46Z" fill="#ffffff"/>
</svg>
